# xmcd
#
# Track frame offsets:
#	150
#	11025
#	19950
#	31950
#	51975
#	63075
#	75975
#	87825
#	100800
#	113625
#	130875
#	141900
#	155025
#	165150
#	179250
#
# Disc length: 2564 seconds
#
# Revision: 0
# Processed by: cddbd v1.5.2PL0 Copyright (c) Steve Scherf et al.
# Submitted via: EasyCDDAExtractor 16.0.6.1
#
DISCID=b60a020f
DTITLE=Φαραντούρη Μαρία-Δημητριάδη Μ.-Θεοδωράκης Μ.-Καραλής Λ. - Τα τραγούδια 
DTITLE=του αγώνα-Μ. Θεοδωράκης
DYEAR=1974
DGENRE=Έντεχνη λαϊκή
TTITLE0=Στην Ελλάδα σήμερα [Αλ.Παναγούλη]
TTITLE1=Στον Νικηφόρο Μανδηλαρά [Αλ. Παναγούλη]
TTITLE2=Πάλης ξεκίνημα (Οι πρώτοι νεκροί) [Αλ. Παναγούλη]
TTITLE3=Όταν χτυπήσεις δυό φορές [Μίκη Θεοδωράκη]
TTITLE4=Ο θρήνος [Γ. Δεληγιάννη-Αναστασιάδη]]
TTITLE5=Μη ξεχνάς τον Ωρωπό [Μίκη Θεοδωράκη]
TTITLE6=Διότι δεν συνεμορφώθην [Μίκη Θεοδωράκη]
TTITLE7=Ο λεβέντης [Νότη Περγιάλη]
TTITLE8=Η επιστολή [''Οδός Μπουμπουλίνας'' Μάνου Ελευθερίου]
TTITLE9=Η αυλή [''Οδός Μπουμπουλίνας'' Μάνου Ελευθερίου]
TTITLE10=Ποιος την ζωή μου [''Οδός Μπουμπουλίνας'' Μ. Ελευθερίου]
TTITLE11=Κλείστ' το παράθυρο [''Οδός Μπουμπουλίνας'' Μ. Ελευθερίου]
TTITLE12=Τα ηφαίστεια [Αρκαδία IV Ανδρέα Κάλβου]
TTITLE13=Εις Σάμον [Αρκαδία IV Ανδρέα Κάλβου]
TTITLE14=Αι ευχαί [Αρκαδία IV Ανδρέα Κάλβου]
EXTD=
EXTT0=
EXTT1=
EXTT2=
EXTT3=
EXTT4=
EXTT5=
EXTT6=
EXTT7=
EXTT8=
EXTT9=
EXTT10=
EXTT11=
EXTT12=
EXTT13=
EXTT14=
PLAYORDER=
